<svg xmlns="http://www.w3.org/2000/svg" viewBox="0 0 352.53 86.14"><defs><style>.cls-1{fill:#fff;}.cls-2{fill:#ec008c;opacity:0.11;}.cls-3{fill:none;stroke:#e6e7e8;stroke-miterlimit:10;}.cls-4{fill:#d1d3d4;}.cls-5{fill:#939598;}.cls-6{fill:#231f20;}.cls-7{fill:#58595b;}</style></defs><title>Element 1</title><g id="Ebene_2" data-name="Ebene 2"><g id="Alice"><path class="cls-1" d="M43.65,25.12h4.46L41.62,60.55H37.85L43.44,31h-.11L33.5,48.81,31.22,31h-.11l-7,29.53H20.43L29,25.12h4.41l1.91,15Z"/><path class="cls-1" d="M43.65,25.12h4.46L41.62,60.55H37.85L43.44,31h-.11L33.5,48.81,31.22,31h-.11l-7,29.53H20.43L29,25.12h4.41l1.91,15Z"/><path class="cls-2" d="M59.51,33l4.49.43L51.72,17.83,51.65,19l.15-.54L51,20l.31-.42c-1,1.11-1.88,2.05-2.89,3.06l-.86,1.07q-3.25,5.15-6.74,10.14c-4.61,6.78-9.59,13.33-13.26,20.68l12.3-14.8L20.08,45.11l.47.55a19.71,19.71,0,0,0,3.57,1.68c4.12,1.71,8.3,3.32,12.5,4.81l6,2.13L27,44.26l15,18.11A3.56,3.56,0,0,0,43.15,60l7.29-27.3,1.26-3.63c1.25-3,2.82-5.87,4.13-8.84s2.65-5.78,4.16-8.56l-.46.65.31-.37.48-.65L54.39,9.9A3.56,3.56,0,0,0,52.05,11q-3.84,2.78-7.55,5.72c.18-.14-9.67,7.38-9,8l6.79,5.93-.14-.43-6.72,4.53,20.78.63-6.93-3,.61.27Q38.35,29.94,38.12,16.51l-.06.73c.5-1.36,1-2.72,1.54-4.07a12.74,12.74,0,0,0,.61-1.7A4.56,4.56,0,0,0,41.53,8.8c-2.13-1.37-4-1.49-5.46-.35a14.91,14.91,0,0,0-5.28,6.24,16.73,16.73,0,0,0-1.77,4c-.74,2-1.43,3.93-2.09,5.92Q26.09,27,25.4,29.37a2.23,2.23,0,0,0-.06,2l6.78,4L52,34.41,31.29,29a2.84,2.84,0,0,0-2.11.9q-2.41,1.71-4.74,3.55Q21.51,35.64,18.65,38a23,23,0,0,0-3.8,3.44l-2.51,3.9L27,32.07,2,44.22a3.81,3.81,0,0,0,2.31,1.36l22.29,9.53-4.55-9.84,4.24,12.09L25.5,45.15l.4,16c.07,2.52,1.56-2.77,1.26-1.66L34.41,32.2a24,24,0,0,1,2.36-5.77C38.38,23.3,40,20.13,41.49,17c1.67-3.43,3.19-6.94,5-10.29l-.5.61.8-1L22.06,17.55,46.21,24.7l-16-10.64a1.8,1.8,0,0,0-.06,1.17,107.36,107.36,0,0,1,1.94,15.91L32,20.31l-1.18,13.9L33.41,21l-6.3,21.87,2.75-6.51L25.12,46.71c-.07.17-1.26,2.65.07,1.78A25.67,25.67,0,0,0,32.54,43c.87-.79,1.72-1.6,2.56-2.42q2.68-3.12,5.16-6.4A21.91,21.91,0,0,1,46,28.48c4.84-4.35,9.63-8.76,14.4-13.18l-.53.48.82-.72c.77-.42.72-.65-.16-.68a30,30,0,0,0-5.79,1q-5.52,1.22-11,2.59a29.94,29.94,0,0,0-5.63,1.7c-1.7,1.44-3.42,2.88-5.14,4.3L43.07,22.1l-14.37,2c-.67.08-.73.31-.16.68a12.32,12.32,0,0,1,4.55,5.28L33,28.93,25.12,46.71l.07,1.78a16.21,16.21,0,0,0,3-4.3c1.7-3,3.34-6,4.86-9a8.87,8.87,0,0,0,1.25-3.88c.08-2.68,0-5.37.07-8L29.84,38.86q6.1-10.65,17-14.17A5,5,0,0,0,46,21.42c-1.75-4.78,0-10.31.86-15.11A4.31,4.31,0,0,0,44,7q-5,2-9.85,4.29t-9.71,4.59a4.3,4.3,0,0,0-2.35,1.72c-.36,1-.7,2.05-1,3.07a74.11,74.11,0,0,0-2.09,9.13l-.81,4q0,5.55-.19,11.1l3,5.91q2.72,5.49,5.17,11.1l4.19-23.28L26,40.48c-2.5.53-5,.93-7.55,1.21C13.23,42.37,8,43.2,2.77,44.08L2,44.22c.44,2.36,1.31,4.64,1.64,7,.53,3.69.66,7.41,1.22,11.11a2.81,2.81,0,0,0,1.9-1.27c1.37-1.42,2.7-2.86,4-4.35,1.64-1.83,3.26-3.68,4.84-5.56a22.29,22.29,0,0,0,3.08-4.08c.83-3,1.41-6.05,2.11-9.05L9.72,51.8,26.39,33.87l-6,5.65,9.52-8.72L15.28,42l25.21-7L28.15,37.33l22.24-2a2.41,2.41,0,0,0,1.92-.44c.46-.18.37-.35-.28-.52l-20.76-3,9,2.11L28.2,27.17,33.73,33,28.17,21.1l.74,10.72L36.37,9,24.06,31.09l1.1-.7-.72.36c0,2.08.14,4.16.16,6.24l.65-.35c3.61-2.12,7.23-4.21,10.85-6.3l-2.44-6.1L31.3,27.66a71.11,71.11,0,0,1-5.14,5.42c-3.76,3.71-7.72,7.18-11.72,10.63-.53.62-.4.82.38.59a24.85,24.85,0,0,0,4.73-2.62l18.53-9.82L25.4,37.55l15.93-6.64L22.87,37.15l16.37-2.23L29,35.93l25.58.3-16.85-.8L61.5,38.66c-1.09-.15,4,.29,1.81-.59L47.75,31.64l4.86,2.41L41.31,25l4,5.38L42.82,19.51l-2.12,7.8L59.84,12,36.06,24.21c-.83,3.47-1.82,7.18-1.72,10.72.06,1.52.09,3,.11,4.56q.07,3.65.07,7.27l2.78,5.35q2.52,5.07,4.78,10.26L46.67,38.8a12.56,12.56,0,0,1-6.09,2.49,67.52,67.52,0,0,1-7.5,1.29l-6.28,1.1q-7.87-1.83-6.52,2.48c.42,2.24,1.19,4.35,1.46,6.63L22,56.28a48.19,48.19,0,0,0,1,8.63,2.77,2.77,0,0,0,1.87-1.28q2-2.12,3.87-4.34c1.6-1.83,3.16-3.68,4.7-5.56a22,22,0,0,0,3-4.07c.57-1.9,1.13-3.81,1.85-5.65s1.54-3.84,2.42-5.72C42,35.53,43.61,33,45,30.26L36.77,42A20.32,20.32,0,0,1,45.11,35l-.45.23a22.9,22.9,0,0,1,8.4-1.45c3.64-.1,7.29-.23,10.94-.37a2.57,2.57,0,0,0-.82-2q-2.28-3.19-4.73-6.26t-5-6.07a2.58,2.58,0,0,0-1.75-1.27l-4.06-1.06a2.59,2.59,0,0,0,.76,2.05c1.46,2.21,3,4.38,4.55,6.51s3.15,4.26,4.81,6.32A2.65,2.65,0,0,0,59.51,33Z"/><path class="cls-2" d="M62.28,41.67l4.08-.26L46.9,21,38.24,49.84,36.75,53.3c-1.34,2.68-3,5.21-4.26,7.93-1.68,3.54-3.16,7.16-4.72,10.75l.3-.66a3.64,3.64,0,0,1-.69,1.27c-.46.61-.27.78.41.57l1.69-.93q2.82-1.89,5.56-3.9c2.83-2,5.64-4.09,8.39-6.24,1.06-.82,2.77-1.86,3.27-3.2C51,47.37,55,37.48,60,26.85c.93-2,1.65-4.47,3.07-6.17l.27-.75c-8.07-1.1-5.54-1.68-12.57,3.55L26.09,44.73a34.26,34.26,0,0,0-2.9,2.88l21.72-5.27L41.17,25.81l-.32,2.49A71.76,71.76,0,0,1,43.7,20a4,4,0,0,0,.73-2.66q-3.34-1.8-5.23.15A26.42,26.42,0,0,0,34.71,23c-7.12,9.29-14.49,24.16-20.58,36.12C12.16,63,10.77,67,9,71l.72,0L27.2,68.48a3.15,3.15,0,0,0,1.13-2.16l6.28-20.69-5.3,13.24,9.61-22.43c1-1.72,2-3.49,2.94-5.29,1.34-2.57,2.65-5.15,3.87-7.78.73-1.56,1.44-3.12,2.16-4.68a15.79,15.79,0,0,1,1.58-3L29,32.78a36.61,36.61,0,0,1-.21,20.63,3.22,3.22,0,0,0-.85,2.13c-.14.55.06.55.62,0a31,31,0,0,0,7.8-5.73c.93-.83,1.85-1.67,2.75-2.52L42.83,43A81,81,0,0,1,56.3,28.48l-.57.46c2.51-1.93,5-3.86,7.47-5.89.81-.54.73-.76-.24-.65a36.71,36.71,0,0,0-6.23,1.9Q50.82,26.39,45,28.61a37,37,0,0,0-6,2.59l-6.4,1.2,21.07-4L34.09,30.3a3.19,3.19,0,0,0-2.36.63L28,55.17l13.14-20c-.12-.47-.25-.92-.4-1.37a5.69,5.69,0,0,0-2-3.12c-2.31-3.22-4.47-6.53-6.6-9.87l-.44,23a7,7,0,0,1,3.58-2.93,23.82,23.82,0,0,1,5.52-2.13L45.93,37q6.59.64,5.59-3.14c-.29-2-1.19-3.8-1.41-5.86L50,24.53q.11-4.8-.18-9.59a4.43,4.43,0,0,0-2.57,1.41Q43,19.74,38.9,23.29c-2.76,2.33-5.46,4.73-8.12,7.17A4.44,4.44,0,0,0,29,32.78c-.91,3.09-1.82,6.13-2.6,9.25-.27,1.06-.54,2.13-.82,3.19a24,24,0,0,0-.95,5.67L24,55q1.3,4.59,2.31,9.25l8.06-20.6a10.46,10.46,0,0,1-7.92,5.76,38.06,38.06,0,0,1-7.14,1.21l-5.85.91Q6.91,49.9,7.74,53.62C8,55.49,8.81,57.17,9,59.07,9.4,63,9,67.08,9,71a3.49,3.49,0,0,0,2.43-.89q4-2.46,8-5.1t7.82-5.37A3.56,3.56,0,0,0,29,57.77c1.15-2.33,2-4.89,3-7.3l-.33.61Q35,47.5,38.42,43.94l-18.17,7.7,22.19-7.23-17,4.2,29.8-5.73c.75-.22.76-.45,0-.7L35.45,38.89l9.64,2.65L32.93,34.87l7,6.49L33.12,29.72l3.05,10.69L39.61,18l-7.2,21.93a5.23,5.23,0,0,1,.18,2.3l0-.73c.09,1.8.14,3.61.16,5.43l.11.69a94.7,94.7,0,0,1,8.71,4.81L38.6,34.21,36,38.07a43.13,43.13,0,0,1-5.45,4.66c-4.15,3.18-8.22,6.37-12.22,9.74l20.9-6.79a13.61,13.61,0,0,1,2.22-1.28l5.46-2.92L28,45.34l23-1.93-17.41.76,23.48.56L43.29,43.57l20,2.33c-1.3-.15,4.22.36,1.9-.55L46.56,38.07l10.2,5.07L45.61,34,51,41.65l12-21-19.5,18c-.31,3-1.57,5.91-1.82,9-.09,1.14-.19,2.27-.29,3.4-.16,1.81-.34,3.61-.54,5.42l1.44,4.14c.81,2.39,1.52,4.82,2.11,7.28l4.72-21.4a10.83,10.83,0,0,1-5.57,3A32.21,32.21,0,0,1,36.77,51l-5.64,1.12q-6.46-1.27-5.56,2.41c.25,2,1.17,3.79,1.37,5.82L27,63.75a91.21,91.21,0,0,0,0,9.5,3.57,3.57,0,0,0,2.41-1q4-2.69,7.85-5.55T45,60.88a3.6,3.6,0,0,0,1.7-2c1.13-3.42,2.17-6.85,3.22-10.29l1-3.15c.58-2.57,1.18-5.14,1.82-7.7l-1-4.87q-.81-4.25-1.35-8.53L42.22,44.54l3.34-2.27a15.06,15.06,0,0,1,6-1c4.91-.17,9.85,0,14.76.11a4.61,4.61,0,0,0-1.61-2.54Q61,34.7,57.18,30.7t-7.81-7.95A4.65,4.65,0,0,0,46.9,21l-3.39-.18A4.61,4.61,0,0,0,45,23.43q3.56,4.25,7.3,8.33t7.53,8.13A4.61,4.61,0,0,0,62.28,41.67Z"/><path class="cls-2" d="M62.32,30.88l3.62-.64-6.27-9.39-1,1-6.19,2.55a38.77,38.77,0,0,1-5.6,1.47,6.22,6.22,0,0,0-3.76,1.5q-3.91,2.31-7.74,4.76c-2.06,1.31-2.34,1.39-3.43,3.45-2.51,4.75-4.76,9.65-7.1,14.49-1.49,3.09-2.65,6.35-4.24,9.39l6.73-8,1-1.76-7.22,6.6L31.14,50l-1.52.1c1.51.21,3,.73,4.27-.09a16.8,16.8,0,0,1,2.57-1.31c.69-.5,1.24-.44,1.65.17.61.53,3.31-5.43,2.71-4.18,3.66-7.63,7.69-15.32,11-23.16l-.27.58c1.9-3.21,3.73-6.43,5.45-9.75,1.17-2.25,2.27-4.56,3.55-6.76l-.46.5.33-.35c.7-.45.63-.67-.2-.67L54.59,3.85a2.31,2.31,0,0,0-2,.32Q49.21,5.6,45.93,7.22t-6.52,3.34A2.35,2.35,0,0,0,37.92,12,88.53,88.53,0,0,1,40.56,24.7L54,23.36,40.41,23l-6.9-.47L29,24.16,23.73,26.1a15.52,15.52,0,0,0-4,1.63,22.35,22.35,0,0,0-2.67,2.57c-2.32,2.4-5.08,5-6.8,7.89A1.19,1.19,0,0,0,10,39.27a1.8,1.8,0,0,0,1.54-.82,91.62,91.62,0,0,0,8.94-8.57l.34-.39a62,62,0,0,1,7-8.25c3-3.2,3.31-3.08,5-5.9a74.82,74.82,0,0,0,3.47-7l-.37.54c1.56-2.23,3-4.77,5-6.65l.36-.61L35.75,1.1A2.8,2.8,0,0,0,33.67,2q-3.32,2.46-6.5,5.08c.16-.13-8.35,6.6-7.62,7.17a11.28,11.28,0,0,1,4.93,5.11q2.77,3.82,5.88,7.39l6.47-2.22Q27.5,26.78,18,28.12a9.56,9.56,0,0,0-2.35,2.27c-2,2.29-4.4,4.76-5.76,7.55a115,115,0,0,0-4.81,11c-.94,2.6-1.59,5.37-2.66,7.92l6-6.28,2.36-3.67L3,54l11-6.59-1.55.23c1.68.2,2.86.61,4.35,0a12.18,12.18,0,0,1,2.93-.71,2,2,0,0,1,2.33,1.06c.55.58,3.24-5.28,2.61-4C28.48,36.25,32.56,28.53,36,20.66l-.3.55A158.48,158.48,0,0,0,44.13,6.43c1-2,1.82-4.5,3.29-6.16l-21,5.2c4.78,1.14,9.16,3.3,13.66,5.26l-4.3-2,10.11,5.76-6.11-4,7.31,5.57L40,9.64l5.9,6.12L40.33,8.7c-3,7.26-3.67,16.2-5.72,23.37l4.59-7.15L28.76,32.13c-1.66,1.14-3.15,2.39-4.73,3.63a5.85,5.85,0,0,0-1.14,2.3q-.83,2.3-1.52,4.65c.06-.22-1.18,3.7.22,2.74C26.4,42.17,27,42,31.31,37.9a95.59,95.59,0,0,1,8.45-8.27c3.05-2.85,6.17-5.65,9.33-8.37a110,110,0,0,0,10.1-9.44A40.23,40.23,0,0,1,62.74,8.1a2.23,2.23,0,0,0-1.89-.56q-3.56-.13-7.12,0c-2.37,0-4.74.12-7.1.28a2.26,2.26,0,0,0-1.88.63C43.08,12.07,40.12,15,37.55,18c-1.18,1.39-2.38,2.77-3.6,4.12a6.19,6.19,0,0,0-2.59,5.39A17.89,17.89,0,0,1,24,35.76l-2.44,9.69a49,49,0,0,0,4.15-4c3-2.88,6.1-5.59,9.29-8.24a14.26,14.26,0,0,0,2.73-3.76l1.13-2a5.17,5.17,0,0,0,.91-2.21L39,21.73,37.1,27.87,44,19.35a7.67,7.67,0,0,0,.81-5.12q.35-3.39.94-6.74A39.92,39.92,0,0,1,47.42.27,3.09,3.09,0,0,0,45,.21C42.15.75,39.29,1.35,36.45,2s-5.69,1.35-8.51,2.13a3.07,3.07,0,0,0-2.13,1.1A103.64,103.64,0,0,0,22,16.38l-1.18,3.67q-1.11,4.89-2.39,9.73l1.53,6.32Q21.17,41.69,22,47.38l7.47-15.51a23.68,23.68,0,0,1-7.26,3.06,45.11,45.11,0,0,1-8.3,1.86L7.3,38.07Q-.8,35.76.09,40.39c.18,2.27.73,4.49,1,6.75.42,3.56.59,7.15.93,10.71.18,1.86,2.87-2.25,2.75-2.09C6,54.05,7.23,52.32,8.39,50.55A9.6,9.6,0,0,0,10,47.64c.52-1.5.92-3,1.37-4.58,1.44-4.84,4.24-9.17,6.71-13.52l-7.62,8.84a102.78,102.78,0,0,1,22-11l-7.78,3,17.7-5.77s2.16-.89.84-1.16l-16.79-5,.53.51-1.22-5.51-.39,1.08L34.42,2.94,20.19,14.2l2.87-1.32L21,13c-1.22,1-2.43,1.94-3.63,2.92l-.37.54,1.19.35-.57-.18c3.09,2.22,2.05,12,2.11,11.67l.87-3.44L15.3,33.63,20.08,27l-5.45,6-1.35,3.68c.62.18,1.12-.09,1.52-.8A129.85,129.85,0,0,1,27.87,27.3l-6.42,3.49a147.21,147.21,0,0,1,23-5.68l-9.08,1.76L54,24.55c.06,0,2.41-.46,1.13-1q-9.63-1.7-13.07-11L41,14.35,53.1,5.24,38.51,12.05l3.11-.53-2.45.1a68.59,68.59,0,0,0-2.71,9.71q-.33,2.1-.72,4.17c-.39,2.23-.81,4.44-1.27,6.65l1.46,5.74Q37.16,43,38,48.27l7.8-16.16A22.29,22.29,0,0,1,39,35.38a37,37,0,0,1-7.85,2l-6.34,1.43q-7.94-1.95-6.94,2.64c.24,2.49.88,4.93,1.19,7.42.48,3.83.74,7.68,1.21,11.51.18,1.46,1.72-.83,2-1.19.83-1.09,1.61-2.21,2.35-3.37,1-1.43,1.89-2.89,2.74-4.4.71-1.74,1.25-3.55,2-5.29,1.6-3.87,3.13-7.72,4.59-11.64L29.58,42.9c4.22-3.59,8.41-7.14,13.6-9.21,7.36-2.95,15-3.19,22.76-3.45.83,0-2.64-5.31-2.51-5.12C62.7,24,61.27,21,59.67,20.85l-3.41-.37a1.27,1.27,0,0,0,.12,1.39q1,2.14,2.26,4.19c.78,1.38,1.63,2.72,2.53,4A1.28,1.28,0,0,0,62.32,30.88Z"/><path class="cls-2" d="M59.19,44.93l4-.22L40.44,27.2,33.13,56.05l-1.71,3.32c-1.34,2.76-2.56,5.59-3.76,8.41s-2.26,5.66-3.56,8.41l.4-.72-.25.32-.41.72.81-.15,2-1.09c2.22-1.46,4.4-3,6.56-4.49,3.35-2.35,6.68-4.71,10-7.16C44,63,46.81,61.33,47.07,60l3.17-16.08,1.27-3.52c1.2-2.62,2.8-5.09,4.05-7.71a94.56,94.56,0,0,1,4.36-8.65l.21-.69c-2.07-1.52-4-1.85-5.81-1a20.13,20.13,0,0,0-5.71,3.76,24.69,24.69,0,0,0-2.22,5.08,45.17,45.17,0,0,0-2.54,7.51L43.67,40a7.76,7.76,0,0,1-.74,4.64l.66-.19c-4.43,1-8.85,1.9-13.21,3.13l-5.67,1.72a7.23,7.23,0,0,0-2.09,1.48c-2.62,2.07-5.24,4.15-7.76,6.34l26-5.11L37.36,29l.06.65q.78-2.4,1.59-4.8a22.13,22.13,0,0,1,.85-2.36,3.19,3.19,0,0,0,.83-2.3q-2.82-1.9-4.8-.39a13,13,0,0,0-4.24,4.87c-1,2.16-1.37,5-1.8,7.25a36.39,36.39,0,0,0-1,6.78,5.18,5.18,0,0,0,.52,2.55c.8,3-.13,5.06-2.81,6.1-3.69,2.69-7.58,5.27-11,8.29A4.21,4.21,0,0,0,14,57.89c-.93,1.66-1.84,3.34-2.73,5-2,3.78-3.45,7.78-5.31,11.61a4.6,4.6,0,0,0,2.84-1Q13.7,71,18.48,68.18T28,62.53a4.62,4.62,0,0,0,2.24-2,62.59,62.59,0,0,1,5.4-21q2.15-3.44,4-7l.18-.67-6.18-4.39c-.63-.44-3.07,8.73-2.48,6.6C29.69,39.37,28.23,44.67,27.09,50l-.94,4.47,1.92-6.19L24.4,58.4l0,.83c5.15-3.72,7.47-5.07,11.73-9.68l.36-.43A95.57,95.57,0,0,1,60.43,27q1-.87-.3-.63L36.14,36l13.75-4.76L33,36.55l19.32-4.67L27.6,28.61c-.77-.09-.87.12-.28.64L41.4,40l-9.88-9.35L24.4,58.4,38.06,34a19.31,19.31,0,0,0-2.45-3.83c-2.18-2.89-4.22-5.87-6.23-8.87l-.12,25.93a8.75,8.75,0,0,1,4-3.21,26.64,26.64,0,0,1,5.6-2.31l5-1.92q6.26.33,5.15-3.29c-.37-2-1.24-3.91-1.49-6l-.24-3.34a64.06,64.06,0,0,0-.63-8.76,3.57,3.57,0,0,0-2.3,1.22Q41.73,21.74,39.19,24c-2.14,1.83-4.25,3.68-6.34,5.57a30,30,0,0,0-4.15,4.13c-1.47,3.95-2.9,7.92-4.36,11.88C23.45,48,22.9,50.49,22.23,53a11.56,11.56,0,0,0-.64,2.64q1.21,4.86,2.13,9.79l-.1-.64.67,4.55,5.4-19.47a8.47,8.47,0,0,1-5.22,2.7,30.76,30.76,0,0,1-6.82,1.06l-5.91.8q-6.71-1.86-6,2c.13,1.84,1,3.46,1.15,5.35L6.81,65Q6.3,69.73,6,74.52a4.6,4.6,0,0,0,2.84-1c2.3-1.22,4.58-2.47,6.83-3.78q4.24-2.39,8.44-4.89a39.31,39.31,0,0,0,5.67-3.68,73,73,0,0,0,3.73-6.48l-.47.61,5.48-4.67L27.2,53.9c8.44-2.12,16.83-4.09,25.29-6,.86-.16.88-.4.06-.7L33.31,41.72l9.74,3.35-13.6-8.73,7.1,6.5L30,31.15l2.32,9.62,8.34-19.89L28.07,39c0,.61,0,1.22,0,1.83,0,2.11-.12,4.21-.22,6.31q0,2.7,3.38,3.79c2.32,2.3,4.53,4.69,6.66,7.16L36,39.32,34.24,42.6a31.61,31.61,0,0,1-5.41,4.31c-4.53,3.14-9,6.38-13.36,9.71-.86.4-.82.63.13.68a34.81,34.81,0,0,0,6.34-.88Q28,55.31,34,54.05a36.63,36.63,0,0,0,6.2-1.59c2.59-.94,5.31-1.6,7.94-2.4l-11.72.36c9.18,0,18.34.1,27.52.16.82,0,.88-.25.18-.68L47.26,42.29l8.22,4.6L43.93,36.71l5.89,7.84,10.1-20.5L42.67,39.89l-.05.25.21-.69c-.5,1.49-1,3-1.51,4.45a37.35,37.35,0,0,0-1.59,6.21c-.46,2.28-1.43,4.74-1.45,7l1.46,4.44c.85,2.61,1.56,5.26,2.15,7.94l4.61-19.7a8.09,8.09,0,0,1-4.93,2.72A29.86,29.86,0,0,1,35,53.77l-5.75,1Q22.61,53.16,23.37,57c.17,2,1.1,3.65,1.21,5.65l-.09,3.5q-.51,5.18-.65,10.38a4.74,4.74,0,0,0,2.78-1.24q4.69-3.1,9.27-6.39T45,62.23A4.72,4.72,0,0,0,47.07,60l.75-3c.68-2.74,1-5.5,1.48-8.29l.57-3.54c0-2.93.08-5.85.16-8.78l-2.12-4.5q-1.89-4.2-3.63-8.46L38.56,48.26l3.54-2a22.69,22.69,0,0,1,6.39-.91c4.91-.27,9.82-.38,14.73-.62L40.44,27.2,37,27a4.77,4.77,0,0,0,1.95,2.34q4.27,3.69,8.69,7.22t8.89,7A4.74,4.74,0,0,0,59.19,44.93Z"/><path class="cls-2" d="M60.13,36.43l4.28,0L48.53,18,41.31,38l6.48-15L39.07,40.77l4-7.26c-4.56,8-9.53,15.9-13.56,24.21-.94,1.94,2.31-1,1.92-.65A62.57,62.57,0,0,0,40,49.24c3.1-3.66,6.13-7.39,9-11.2a52.43,52.43,0,0,0,3.69-5.19,89.75,89.75,0,0,0,4.7-10.27l-.34.72c1.24-2.6,2.41-5.25,3.77-7.8l-.41.72.31-.37.42-.72c-8.4-1.79-5.11-2.1-12.88,3.14-.86.58-10.18,13.56-9.11,14.18l5.54,3.22-.93-1.13L38,38.78l21.84,1.95L54.1,38l.62.32q-11.31-4.28-14.6-17.29l-.37,2.72a57.56,57.56,0,0,1,3.1-10l0-.82c-2.45-1.43-4.33-1.36-5.66.21a156.64,156.64,0,0,0-20.79,32.4c-1.46,2.4-2.91,4.81-4.33,7.24A18.65,18.65,0,0,0,9.21,59L26,44,4.35,47.45l.52.55L27.53,66.55a3.72,3.72,0,0,0,1-2.47l7-28.16a28.19,28.19,0,0,1,2.39-5.66C39.47,27.15,41,24,42.46,20.82c1.65-3.44,3.15-7,4.94-10.34l-.45.69.29-.36L23.35,25.12,28.69,44.8l.13-2.27c-.42,2.08-.9,4.16-1.45,6.21l4.39-9.42L26.83,49a2.81,2.81,0,0,0-.7,2c-.1.52.1.52.6,0,4.21-2.72,6.63-4.1,10.06-8l3.54-4.38a24.81,24.81,0,0,1,6.77-7.58c2.43-2.26,4.8-4.6,7.28-6.8,2.23-2,4.56-3.85,6.84-5.78.83-.47.77-.7-.19-.67a35.78,35.78,0,0,0-6.3,1.38q-6,1.59-11.94,3.34a36.56,36.56,0,0,0-6.1,2.08L33.3,26.15c-9.52,4.26-3.42,4.35-7.17,24.54l11.58-18.9C37.2,28.3,35.35,25,34.1,21.7l.23.61L33.21,18.9,30.83,39,35,34.8q2.91-1.24,5.89-2.3,2.49-.87,4.91-1.93c2.31,0,3.12-.88,2.44-2.69-.38-1.54-1-3-1.29-4.54a32.13,32.13,0,0,1,.18-5.55c.22-2.55.42-5.11.58-7.67a4.8,4.8,0,0,0-2.86,1.06Q39.93,14,35.13,17T25.59,23a4.77,4.77,0,0,0-2.24,2.08c-.31,1-.63,2.06-1,3.09a75.23,75.23,0,0,0-1.83,8.86l-.69,3.83c.07,3.4.09,6.8.08,10.21l2.8,5.36q2.5,5,4.77,10.08l3.79-24.44A12.36,12.36,0,0,1,25,44.37c-2.56.46-5.14.78-7.74,1l-6.35.89c-5-1.33-7.18-.63-6.39,2.12.34,2,1.15,3.83,1.4,5.86l.22,3.22a56,56,0,0,0,.65,8.38A3.48,3.48,0,0,0,9,64.57q2.54-2.14,5-4.41c2.06-1.85,4.08-3.74,6.08-5.65a29.06,29.06,0,0,0,4-4.17c1.07-3,1.85-6.09,2.76-9.11L18.94,49.5c5.57-5.19,11-10.14,16.68-15.07L16.81,46.13l20.37-7.87L23.88,43,47,38,29.61,40.8l23.6-2.08a3.19,3.19,0,0,0,2.38-.59,3.16,3.16,0,0,0-2.37-.6l-19.5-2.48,10.12,2.76L30,30.66l8,7.56L30.42,25,33.63,37.7,37.9,13.36,29.21,37.73c.31-.06,1.32,4.34,1.31,4.32q-.16,5.45,4.12,1.24c2.26-1.09,4.54-2.14,6.84-3.17l-5.85-12a32.44,32.44,0,0,1-9.79,10.48q-4.89,4.13-9.73,8.32c-1.93,1.66,3.14-.61,2.11-.09l15.42-7.76L20.26,45.41l15.9-6.74L22.37,44.12,43,36.91l-18,5.61L47,36.63,26.36,40.84l22.17-1.45L33.92,40,58,41.49,40.3,39.62,63.9,43.7a2.7,2.7,0,0,0,2.08.09c.51,0,.46-.24-.15-.58l-20.54-8.6,9.77,5.15L43,29.49l4.74,7.14-3.47-13L43,34,60.79,15.85,37.69,31.6c-.56,3.4-1.59,6.79-1.46,10.24q.08,2.08.12,4.17c.07,2.22.11,4.43.12,6.65L39,57.58q2.28,4.66,4.34,9.43L47.59,42.4a10.5,10.5,0,0,1-5.75,2.44A60.39,60.39,0,0,1,34.63,46L28.58,47q-7.35-1.64-6.12,2.42c.38,2.14,1.22,4.11,1.45,6.31l.19,3.47a51.72,51.72,0,0,0,.76,9A3.48,3.48,0,0,0,27.06,67q2.48-2.22,4.85-4.54c2-1.9,4-3.84,5.93-5.8a28.92,28.92,0,0,0,3.86-4.27c.86-2.83,1.78-5.64,2.73-8.43.86-2.5,1.72-5,2.63-7.47l1.22-3.27a24,24,0,0,0,.28-4.56l0,.65.35-3.8-9.8,17.2,6-5-.45.35A22,22,0,0,1,53,36.68c3.81,0,7.61-.08,11.42-.2a3.64,3.64,0,0,0-1.21-2.32q-3-3.79-6.16-7.43t-6.39-7.22A3.6,3.6,0,0,0,48.53,18L45,17.55a3.54,3.54,0,0,0,1.13,2.35q2.85,3.86,5.87,7.56t6.12,7.36A3.56,3.56,0,0,0,60.13,36.43Z"/><path class="cls-2" d="M59.32,54.64l4-.08-20.1-7.9-4.52-2.11,2,2.63-2.62-4q-.51-.68-.69.15L31.71,65.55l-1.62,3.37q-1.9,4.17-3.7,8.41A74.1,74.1,0,0,1,22.53,86l21.64-8.2a43.22,43.22,0,0,1-12.92-3.67l5.54,2.24L24.73,68.71,32.86,77a7.45,7.45,0,0,0,3.06-4q2.91-8.2,6.07-16.32l-5.55,6.81q4.48-3,8.88-6.16a29.35,29.35,0,0,0,5.1-3.79,40.68,40.68,0,0,0,2.27-3.43c.76-1.21,1.51-2.42,2.26-3.63,1.54-2.5,3.11-5,4.45-7.64,1.17-2.27,2.06-4.65,3.35-6.85a1.38,1.38,0,0,0,.31-1.43A6.07,6.07,0,0,0,57.39,30a43.47,43.47,0,0,0-10,7.36q-4.26,4.41-8.43,8.9a35,35,0,0,1-7.61,5.48c-2.48,1.45-4.95,2.94-7.4,4.45a16.31,16.31,0,0,0-6.44,5.05,57.09,57.09,0,0,1-5,5.2,2.52,2.52,0,0,0,2,.68c2.56.25,5.11.42,7.68.52s5.12.2,7.69.2a2.52,2.52,0,0,0,2.06-.5c-.68-1.66-.35-3.29-.11-5,.55-4.12.3-7.32.71-12.09l-2.08,7.23q2.16-5.41,4.25-10.84,1.47-4.1,3.32-8c.67-1.26,1.34-2.53,2.1-3.74a38.39,38.39,0,0,0,2.93-6c.1-.23,1.26-2.82.56-2.87a16.26,16.26,0,0,0-4.67,0,25,25,0,0,0-5.56,7,22.33,22.33,0,0,0-2.8,5.37q-1.29,2.78-2.3,5.65a19,19,0,0,1-2.69,5.66,14.24,14.24,0,0,1-3.75,5.1q-3.11,3.3-6.08,6.71l-3.62,4.27-1.61,3.6c-.93,2.12-1.81,4.26-2.68,6.4a79.46,79.46,0,0,1-3.48,8.43l21.28-5.55A50.59,50.59,0,0,1,13.09,74l4.65,2L6.79,69.15l7.85,6.51-4.1-4,4.11,5a8.35,8.35,0,0,0,3.42-4Q22,64.41,25.88,56.07l-5.69,6.66q4.54-2.88,9-5.92a28.18,28.18,0,0,0,5.26-3.71l1-1.4q2.34-3.47,4.51-7c2-3.33,3.89-6.69,5.62-10.18,1.16-2.33,2.06-5.05,3.55-7.19l-7.29,7.4-1.57,2,2.35-1.1c-3.3,1.21-3.7.88-6.23,1.15a5.66,5.66,0,0,0-1.65.52,2.76,2.76,0,0,1-.87.36.72.72,0,0,0-.73.62L27,60.63a33.92,33.92,0,0,1-2.79,7.14L30.86,58,27,63.22a33.18,33.18,0,0,0-3.45,5.11c-.36.84-.17,1,.56.42A91.63,91.63,0,0,0,37.59,58.6,94.66,94.66,0,0,1,51.3,46.24L40.59,49.46a37.28,37.28,0,0,1,5.76,2.23,1.56,1.56,0,0,0,1.52-.5L54,46.76l2.52-1.84c1.45-1.32,2.85-2.7,4.2-4.12s2.7-2.84,4-4.34a1.69,1.69,0,0,0,.66-1.53,1.69,1.69,0,0,0-1.52.7C59.69,39.34,55.55,43,51.32,46.55l5.42-4a80.11,80.11,0,0,1-17.46,6.27c-.71.21-1-.27-1-1.42q-1.5-2.26-2.9-4.59c-1.17-2-2.28-4-3.31-6l-2.7,20.74a24.94,24.94,0,0,1,5.21-3.82A41.55,41.55,0,0,1,41,50.33L46.18,48q6.68.45,5.73-3.56c-.25-2.36-.92-4.65-1.22-7C50.22,33.74,50,30,49.6,26.34c-.16-1.43-1.72.62-2.07,1-.91,1-1.78,2.08-2.6,3.17q-1.6,2-3,4.17c-2.55,5.42-4.59,11-7.59,16.23l4.36-6.12A109.13,109.13,0,0,1,25,55.32a35.61,35.61,0,0,0-2.62,3A34.89,34.89,0,0,0,20,61.52a5.44,5.44,0,0,0-.38,3.74l2.22-5.13a10.7,10.7,0,0,1-6,5.17A55.9,55.9,0,0,1,5.37,67.68v.49a16.13,16.13,0,0,0,.72,4A5.24,5.24,0,0,1,6.22,77q-1,3.57-1.88,7.17a3.17,3.17,0,0,0,2.44,0c2.92-.58,5.82-1.24,8.71-2s5.77-1.44,8.63-2.27a3.12,3.12,0,0,0,2.16-1.14,120.87,120.87,0,0,1,3.27-12.07,8.12,8.12,0,0,1,3.64-5.23c2.13-2.61,4.28-5.21,6.42-7.81a23.32,23.32,0,0,1-2.79-9.84q-2-6.06,2.26-8.27l3.49-8.84c-2,2.6-3.31,5.81-4.84,8.65a68.83,68.83,0,0,0-4.9,11.92l1.35-3.65-2.83,6.2a27.94,27.94,0,0,0-1.76,5.71c-.14.6-.76,2.21,0,2.64l1.22.72.08-5.67a24.69,24.69,0,0,1-8.44,7.28c-3.08,2-6.23,3.8-9.44,5.55L31.9,67.38a14.9,14.9,0,0,1,1.19-1.78c.48-.67,1-1.34,1.47-2A8.14,8.14,0,0,1,39,60.34L43,57.68q5.63-1.47,4.89-7.09a21.74,21.74,0,0,1,7.56-10.92l-.68-.19.74,1.22.31-1.42c-.6,1.44-1.13,2.9-1.69,4.36a57,57,0,0,1-3.33,6.74L53,46.68,51.4,49.26l2.9-4A115,115,0,0,1,41,55.89c-1.33,1-2.3,2.73-3.26,4-.42.56-2,2.29-1.9,3.1l.59,3.3,2-5.69a8.46,8.46,0,0,1-5.06,5,57.58,57.58,0,0,1-10.1,2.59l0,.49a19.32,19.32,0,0,0,.81,4.12,5.53,5.53,0,0,1,.17,5.25C23.61,80.7,23,83.35,22.53,86a3.46,3.46,0,0,0,2.55-.29c3-.94,5.94-2,8.88-3s5.88-2.16,8.78-3.34a3.44,3.44,0,0,0,2.14-1.41c.32-1,.58-2.06.85-3.09a72.75,72.75,0,0,0,1.51-9.42l.57-4.16q-.37-5.31-.61-10.6l-3.64-3.6q-3.23-3.32-6.32-6.74l-.19,18.36,3.76-1.6a37.08,37.08,0,0,1,7.07-1.35c5.14-.66,10.31-.89,15.49-1.18.89.06,1-.16.22-.66A31.32,31.32,0,0,0,58,51.61q-5.43-1.95-10.91-3.75a32.16,32.16,0,0,0-5.78-1.6l-3.48-.13q-1.32-.1-.24.66A30.81,30.81,0,0,0,43,49.13q5.3,2,10.64,3.85A29.5,29.5,0,0,0,59.32,54.64Z"/><path class="cls-2" d="M57.94,48.72,62,48.58a4.08,4.08,0,0,0-2.09-1.87l-21-14.89-.31.52L30.84,59.77l-1.63,3.31c-1.29,2.78-2.49,5.6-3.68,8.42S23.29,77.18,22,79.93l.43-.68-.26.32c-.52.64-.46.81.37.6l2-.94c2.24-1.28,4.46-2.6,6.64-4,3.39-2.08,6.76-4.17,10.08-6.36.61-.4,4-2.14,4-3.27l1.24-16-3.09,6.7c2.77-5.35,5.39-10.86,8.52-16,1-1.74,2.12-3.46,3.12-5.22.85-1.49,1.63-3,2.4-4.54A17.66,17.66,0,0,1,58.64,28a2.27,2.27,0,0,0,.92-1.78c-1.67-.33-4.17-1.28-5.82-.86l-5.24,3.4-4,4.27-.25.35L42.12,38l-.57,4.58a6.72,6.72,0,0,1-5.64,4.64c-2.35.9-4.45,1.73-6.77,2.69-3.25,1.35-7.08,2.48-9.71,4.84-2.33,2.09-4.58,4.28-7,6.27l24.64-1.45a3.27,3.27,0,0,1-.29-2.29,28.92,28.92,0,0,0-.9-11.3l.5,9a116.5,116.5,0,0,1,.36-20.8,27,27,0,0,1,2.8-10.1A2,2,0,0,0,40,22.31l-4.4-.54-.47.27a18,18,0,0,0-5.3,7.35A11,11,0,0,0,28,34.89a10.84,10.84,0,0,0-.36,5.3,7.83,7.83,0,0,1-.52,5.07A5,5,0,0,1,24,49.8q-3.63,3.09-7.17,6.29l-4.31,4.08-1.83,3.48c-1.06,2.05-2.13,4.12-3.09,6.22-1.29,2.81-2.31,5.77-3.76,8.5l24.52-11.2L30,49.37l-3.36,6.55q4.68-8.34,9.66-16.5a2,2,0,0,0,.8-1.68l-4.94-4.87c-.33-.32-1.85,4.16-1.89,4.3-1.35,4.33-2.63,8.72-3.75,13.12l-2.11,8.34,4-11.56L22.38,62.53c-.27,1-.07,1.09.61.34,5-3.89,7.64-5.63,11.92-10.25l.36-.37a65.27,65.27,0,0,1,22-18.62L43.1,41.78c.86-.24,1.71-.49,2.55-.76a19.27,19.27,0,0,0,4.05-2.29q3.73-2.44,7.39-5a18.57,18.57,0,0,0,3.64-2.9c.42-.57.29-.76-.4-.58L41.23,41.07l10.35-5.5L37.83,42.18l15-6.18L38.44,39.14l12-2L29.27,34.89c-.65,0-.73.25-.23.66l9.85,6.72L32.32,36.4,22.38,62.53,36,38.69a31.77,31.77,0,0,0-2.17-3.39c-1.82-2.64-3.5-5.37-5.13-8.13L28,51.2a13.46,13.46,0,0,1,4.64-3.54,32.88,32.88,0,0,1,5.93-2.74l5-2.07c4.19.19,5.93-1,5.19-3.4-.36-2.17-1.13-4.21-1.44-6.39-.55-3.89-.71-7.81-1.24-11.71a2.28,2.28,0,0,0-1.8.91c-1.31,1.11-2.57,2.27-3.81,3.46q-2.36,2.19-4.62,4.46a17.47,17.47,0,0,0-3,3.35c-1.18,2.81-2.35,5.6-3.68,8.36-1.19,2.49-2.41,4.94-3.76,7.35l-1.8,3.21c-.46,3.1-1,6.19-1.69,9.26L29.38,49l-8.56,7.91c-2.45.5-4.92.92-7.4,1.24-2,.28-3.93.58-5.89.93q-3.8-.93-3,2c.27,1.44.86,2.79,1,4.27a24.14,24.14,0,0,1-.48,5.36q-.59,3.84-1.27,7.67a4.3,4.3,0,0,0,2.82-.63q4.92-2,9.75-4.28T26,68.89a4.3,4.3,0,0,0,2.32-1.72c.79-1.42,1.54-2.86,2.31-4.3C31.74,60.8,33.55,59,35,57.21l-.54.43c4.61-3,9.21-6,13.78-9.13l-.56-.37L30.39,33.55l2.53,5.53,2.71-15.56-5.34,13,.34,0L30.58,36c-.13.72-.22,1.45-.28,2.18-.2,1.82-.43,3.63-.68,5.45A9,9,0,0,0,31.86,48c1.36,2.7,2.58,5.45,3.67,8.27l-.94-13.63a18.2,18.2,0,0,1-9.4,10Q18.83,56.86,12.44,61a3.69,3.69,0,0,0,2.62.44c2.29,0,4.59-.12,6.88-.26,2.86-.14,5.72-.31,8.59-.53A30.21,30.21,0,0,0,36.45,60a20.26,20.26,0,0,0,2.66-1.45l-.62.34,3.92-2.1-.62.26q8.45-3.14,16.85-6.38l-.43-.46-9.22-7,.37,1.1,5-18.57L46.62,39l.18.24.09-.58A56,56,0,0,1,44,45.13c-.84,1.8-1.72,3.6-2.61,5.38a7.29,7.29,0,0,0-1.68,5.15Q39.43,59,39,62.32l6.89-13-7.79,7.59q-3.57.75-7.16,1.34-2.91.48-5.78,1.09c-2.56-.51-3.54.21-3,2.18C22.45,63,23,64.4,23.23,66a36.8,36.8,0,0,1-.47,5.84q-.56,4.23-1.07,8.46a4.52,4.52,0,0,0,2.78-1q4.76-2.73,9.39-5.64t9.21-5.92a4.43,4.43,0,0,0,2.15-2c.25-1,.46-2.08.69-3.12A72.59,72.59,0,0,0,47,53.68l.38-3.81q-.42-4.69-.74-9.41l-2.7-4q-2.4-3.69-4.66-7.44L36.47,52.5l3.77-1.87A29.87,29.87,0,0,1,47,49.56c5-.43,10-.66,15-1l-22-12.93-4.37-.24a4,4,0,0,0,2,1.9q4.29,2.79,8.71,5.4t8.88,5.13A4,4,0,0,0,57.94,48.72Z"/><path class="cls-2" d="M63.37,34.35l4.12-.12L56.2,17.73l-.26,1.55.19-.52-1.27,2,.32-.39C49,27.72,43.76,35.73,38.1,43.45a86.75,86.75,0,0,0-7.66,12.44l11.28-11.5L23.15,46.32a2.79,2.79,0,0,0,1.62,1.57q2.48,1.53,5,2.92,3.15,1.78,6.36,3.47a21.71,21.71,0,0,0,4.57,2.1,8.6,8.6,0,0,1,1.88.32l-.5-.18,1.37.62.27-.45,9.93-23.92a44.26,44.26,0,0,1,2.47-5.15c1.46-2.73,2.75-5.53,4-8.34l-.33.69c1.25-2.57,2.43-5.2,3.82-7.71l-.41.68.34-.37.41-.69c-9.17-1.56-5.47-2.1-13.9,3.47A11.72,11.72,0,0,0,47.64,18Q46,20.1,44.47,22.23c-.85,1.12-1.65,2.27-2.42,3.45a1.69,1.69,0,0,0-.47,1.62l3.52,6.37,17.82,2.22L48.84,31.27a20.81,20.81,0,0,0-6.28-2.4C39,29,30.39,32.24,30.46,32.22l1,.5c.56-1.89,2.21-3.42,3.34-5a24.3,24.3,0,0,0,2.45-4.22c1-2.18,1.68-4.51,2.69-6.67s2.38-4.49,3.66-6.65l-3.86,5,3.34-4.05a4.32,4.32,0,0,0,1.4-2.52c-8.14-.38-5.06-1.12-11.19,6.24a13.47,13.47,0,0,0-1.88,3.43q-1.17,2.57-2.25,5.17c-.6,1.38-1.15,2.77-1.66,4.19a1.91,1.91,0,0,0-.12,1.79L32.67,35,49,33.57,29,32a2.09,2.09,0,0,0-1.77.72c-1.29,1-2.55,2-3.77,3q-2.34,1.92-4.59,3.94a15.24,15.24,0,0,0-3,3l-1.89,4,12-11L5.34,45.29a2.77,2.77,0,0,0,1.71,1.49q2.55,1.41,5.19,2.68c3.64,1.8,7.33,3.93,11.26,5a8.79,8.79,0,0,1,2.74,1.4l.28-.43c3.67-7.7,7.28-15.43,11-23.13,1.78-3.74,3.81-7.3,5.7-11,2.4-4.65,4.49-9.48,7-14.07l-.45.65.3-.37L26.61,20.08l7.6,16.11,2.34-10.53-3.88,12.9,1.92-5.73c-1.88,5.3-3.75,10.59-5.73,15.85l1.77-3.46-2,3.4L34.39,40l-4.72,6.74c.64-.9-3.46,5.19-1.49,3.91a28.64,28.64,0,0,0,7.54-5.54A39.85,39.85,0,0,0,42,38.49l3.55-4.36,5.76-5.64C55.57,24.3,59.75,20,64.08,15.91l-.52.49.85-.75c.53-.46.64-.62-.18-.67l-1.93.26c-2.24.5-4.46,1.06-6.67,1.66-3.42.89-6.83,1.81-10.21,2.83-1.4.42-3.16.76-4.25,1.82l-1.32,1.27.52-.49-2,1.89.5-.47L36.43,26l.49-.45-3.36,1.61-.49.29a10.71,10.71,0,0,1,3.74,9.81l.26-2L28.18,49.05l9.26-11.3c.46-3.75.43-7.58.68-11.34L33.14,40q6.27-10.83,17.52-13.53a6.26,6.26,0,0,0-.8-3.5c-1.61-5.13-.07-10.92.63-16.08a4.41,4.41,0,0,0-2.79.86c-3.2,1.62-6.38,3.31-9.51,5.07s-6.28,3.49-9.36,5.34a4.38,4.38,0,0,0-2.22,1.9c-.31,1-.61,2-.92,3a84.78,84.78,0,0,0-1.86,8.65l-.74,3.73c-.13,3.15-.3,6.29-.52,9.44l1.72,5.21q1.41,4.51,2.49,9.12l5.91-20.41a16.84,16.84,0,0,1-6.81,2.75,54.48,54.48,0,0,1-7.81,1.44l-6.24,1q-7.43-2-6.36,2.19c.28,2.07,1,4,1.26,6.12.48,3.73.61,7.49,1.07,11.22a2.11,2.11,0,0,0,1.74-.85q1.85-1.59,3.6-3.3,2.22-2.09,4.36-4.26A15.73,15.73,0,0,0,20.28,52c.58-2,.88-4.06,1.31-6.07a9.67,9.67,0,0,1,2.68-6.19q2.28-3.57,4.62-7.11L16.37,43.26l25.8-8.63L29,37.84l20.08-3.08c-.9.14,3.43-.71,1.39-1L36.37,31.6l4.56,1.16L30.2,27.07l4.3,4.42-4-10.2-.14,8.89L39,9.12l-12.59,20,1.15-.51L27,28.15c-.88,1.5-1.67,3.05-2.5,4.57-.38.76-.21.92.51.47,2.41-1,4.82-1.91,7.28-2.77l2.36-5c-2.27,2.67-4.52,5.33-7,7.8-3.48,3.44-7.12,6.63-10.86,9.79l12.44-7.75.37-.39L18,43.45,25.5,38.4l-6,3.92,21.8-12-15,6.29,25.21-1.72L40.35,35l21,1.63a2,2,0,0,0,1.73-.18c.43-.11.37-.3-.16-.55L49.6,31.2,54,33.14,44.18,25.8,48,30.64l-2.23-10-1.39,8L57.27,11.45,40.53,26.9l1.22-.23-.8.09c-.51,3.32-1.45,6.63-1.42,10,0,1.31,0,2.62,0,3.94q0,3.12-.08,6.26l1.78,4.56q1.48,4,2.68,8.07l5.42-20.75a16.19,16.19,0,0,1-6.46,3,44.19,44.19,0,0,1-7.46,1.75l-6,1.22q-7.25-1.57-6.11,2.53c.34,2.25,1.09,4.4,1.38,6.67.51,4,.69,8.07,1.27,12.1a2.07,2.07,0,0,0,1.7-.87q1.82-1.62,3.52-3.34,2.17-2.12,4.26-4.32a15.46,15.46,0,0,0,2.69-3.23c.83-2.28,1.6-4.58,2.51-6.83A120.28,120.28,0,0,1,47.1,33.92l-7.54,9.61a29.41,29.41,0,0,1,8.69-7.87l-.45.18a17.34,17.34,0,0,1,8.35-1.76q5.67-.12,11.34.15a2.63,2.63,0,0,0-.69-2.07c-1.38-2.24-2.83-4.44-4.33-6.61s-3-4.33-4.59-6.43a2.6,2.6,0,0,0-1.68-1.39l-3.54-.42a2.64,2.64,0,0,0,.62,2.11q1.95,3.46,4.1,6.81t4.36,6.65A2.6,2.6,0,0,0,63.37,34.35Z"/><path class="cls-2" d="M61.29,51.51l4.21-.09-.5-.66L41.1,32.43a3.25,3.25,0,0,0-.83,2.32L35,59.59a28.72,28.72,0,0,1-1.93,4.74c-1.37,2.9-2.69,5.86-4,8.81-1.41,3.27-2.65,6.62-4.21,9.81l.46-.58-.73.9,23.3-9.94L32.18,64.1l7.12,9.43c1.73-3.26,2.09-6,2.85-9.83l-1,3.87,4.09-11.23-4.61,9.9c5.23-8.35,10.76-16.5,16-24.83,2.2-3.47,3.75-7.25,5.85-10.76a2.12,2.12,0,0,0,.65-1.81C61,27.63,59,27.51,57.25,28.5A39.56,39.56,0,0,0,52,32a26.68,26.68,0,0,0-7.22,9,12.12,12.12,0,0,1-5.38,7.56q-5.94,2.7-11.76,5.66A16.22,16.22,0,0,0,20.33,59c-1.76,1.69-3.48,3.45-5.35,5a2.88,2.88,0,0,0,2.23.64q4.21.25,8.44.3c2.81.07,5.63.06,8.44,0a2.91,2.91,0,0,0,2.25-.56,2.7,2.7,0,0,1-.14-2.26,35.07,35.07,0,0,0,.69-12.93l-.53,8a101,101,0,0,1,7-30.28l-4,8.52,1.83-3.67c-.11.22,3.58-7.15,2.77-7.18l-4.5-.13A6.69,6.69,0,0,0,37.07,27a12.08,12.08,0,0,0-3.29,4.83,13.21,13.21,0,0,0-1.41,2.78,23,23,0,0,0-1.3,5.4l-.15,5.12L29,49.93q-3.91,3.36-7.66,6.92c-1.58,1.43-3.12,2.92-4.62,4.45a7.34,7.34,0,0,0-3,3.91q-1.86,3.9-3.56,7.88C9,75.86,8,78.78,6.57,81.43l22.49-7.34A34,34,0,0,1,9.24,64.62l10.82,9.1a4.57,4.57,0,0,0,2.18-2.2c2.83-4.8,4.75-11,6.62-15.57L24,65.73q7.43-10.52,14.64-21.17A99.59,99.59,0,0,0,43.93,36a1.94,1.94,0,0,0,.59-1.72L31.92,30a3.49,3.49,0,0,0-.74,2.46A92.11,92.11,0,0,1,26.6,63.41l2.93-5.54-3.2,5.58c.16-.28-2.35,3.66-.44,2.29l6.82-4.92a51.35,51.35,0,0,0,8-7.47,46.79,46.79,0,0,0,3.63-4.19,32,32,0,0,1,9.58-8.53L38.26,44.27,39.72,47l.59.1c3.17-.79,6.36-1.5,9.51-2.36,1.38-.38,2.77-1.79,3.87-2.62,2.79-2.11,5.53-4.32,8.19-6.61.33-.28,2.35-1.74,2.31-2.45.19-.3.12-.4-.22-.28a2.14,2.14,0,0,0-1.64.78L51.05,40.65,57.42,37,43.84,44.15l11.89-5.53L42.36,42.49,53.73,40,35,38.53c-.59,0-.67.25-.24.65L43.24,46l-5.52-5.09,4.14,9.45-2.51-8.17-13,21.31,14.4-19.58a14.48,14.48,0,0,0-2.44-4.18C36,36.53,34,33.29,31.92,30L30.6,53.78a13,13,0,0,1,4.66-3.37,36.14,36.14,0,0,1,6.08-2.66l5.26-2.09q6.87.48,5.65-3.46c-.39-2.22-1.1-4.33-1.38-6.58-.5-3.86-.69-7.74-1.22-11.61a2.18,2.18,0,0,0-1.64,1c-1.13,1.21-2.21,2.45-3.26,3.73-1.34,1.56-2.65,3.16-3.93,4.77a16.11,16.11,0,0,0-2.44,3.53C37.63,39,36.94,41,36.09,42.85a108.62,108.62,0,0,1-7,13l5.25-7.6L28.5,54.56l-3.33,3.83-2.8,2.06a34.12,34.12,0,0,1-6.78,1.88c-1.78.36-3.54.74-5.31,1.15-2-.48-2.91-.07-2.72,1.23a5.91,5.91,0,0,0,.91,2.85l-.2-.48a8.31,8.31,0,0,1,.37,5.1c-.54,3.11-1.23,6.2-2.07,9.25a3.59,3.59,0,0,0,2.61-.19c3.09-.82,6.17-1.72,9.22-2.69s6.1-1.92,9.12-3a3.62,3.62,0,0,0,2.26-1.32c1.1-1.93,1.65-4.28,2.63-6.29A35.71,35.71,0,0,1,34.84,63l4.48-4.25q4.36-4.16,8.7-8.35l-.48-.36a15.66,15.66,0,0,1-6.79-4.77Q36,41.13,36.81,33.92L37,38.76l1.08-4.25L36.66,38l.39.36-.13-.51c-.3,1.7-.6,3.41-.92,5.11a19.78,19.78,0,0,0-.16,5.49L38,39.29,34.31,50.35a13.46,13.46,0,0,1-4.73,4.24C24.78,57.84,19.86,60.91,15,64l21.36.37c1-.69,2-1.59,3-2.36a20.38,20.38,0,0,1,6.32-3.63L55.8,53.18l-.34-.46a9.28,9.28,0,0,1-3.91-6.11,7.7,7.7,0,0,1,1.33-4.94l-.66-.25.33,1.15V42a26.7,26.7,0,0,1-1.74,4.25c-1.92,4.19-4.65,8-6.82,12.09l6.31-9.76A52.16,52.16,0,0,1,35.79,62.23Q32,63.1,28.2,64.12c-2.19-.34-3.06.32-2.63,2a8,8,0,0,0,1,2.23l-.2-.47a7.91,7.91,0,0,1,.29,5.24q-.9,5.11-2.06,10.18a3.86,3.86,0,0,0,2.68-.49Q32,81,36.55,79t9.14-4.07a3.88,3.88,0,0,0,2.21-1.59c.34-1,.61-2,.91-3.08a75.58,75.58,0,0,0,1.66-9.13l.63-4q-.26-5.41-.38-10.83l-3.51-4.81q-3.14-4.47-6.11-9L38.82,55.07l3.54-1.85a29,29,0,0,1,6.85-1c5.42-.43,10.86-.56,16.29-.76L41.22,38.22,37.74,38l.81,0L36.8,38a4.68,4.68,0,0,0,2.28,1.94c3.17,1.89,6.36,3.72,9.6,5.48s6.47,3.54,9.75,5.21A4.57,4.57,0,0,0,61.29,51.51Z"/><path class="cls-2" d="M58.65,40.57l4.16-.11L43.11,22.17l-9.91,30Q31.78,54.51,30.57,57c-1.21,2.39-2.32,4.81-3.35,7.28-.62,1.48-1.22,3-1.83,4.45a12.7,12.7,0,0,1-1.34,2.84l-.32.73,18.33-2.35a3.41,3.41,0,0,0,1-2.31L50,40.55a18,18,0,0,1,2-5.38c1.32-2.57,2.42-5.21,3.64-7.83.69-1.47,1.4-2.94,2.09-4.42A13.71,13.71,0,0,1,59.3,20l.33-.71c-7.81-1.81-4.77-2-12,2.8a14.81,14.81,0,0,0-2.22,3.41c-1,1.71-1.88,3.43-2.76,5.18q-1.11,2.07-2.08,4.21a2,2,0,0,0-.3,1.83l3.42,2.37-1-1.21a49.69,49.69,0,0,0-18.47,7.39l-3.61,2.64c-1.77,1.3-3.59,2.56-5.23,4l24.69-8.31c-.48-13.84-2.32-16,.56-25L38,24.21l2.3-4.47a4.07,4.07,0,0,0,.84-2.67q-3.35-2.19-5.29-.06l-4.19,5Q21.79,40.27,11.27,58.1c-.56.93-1.1,1.87-1.62,2.83C8.62,63,7.84,65.25,7,67.41c-.29.72-.59,1.44-.9,2.15q-4.41,9.24,18.78,0a3.39,3.39,0,0,0,1.09-2.28L33.76,40,35.22,36l2-3.67,2.61-5.19c1.9-3.78,3.63-7.64,5.48-11.45l-.35.69A4.56,4.56,0,0,1,45.78,15L24.52,29.89l1.12,21.82,7.17-14.94L27.07,48.31a30.15,30.15,0,0,0-2.28,4.93A2.64,2.64,0,0,0,24.4,55c4.63-3.19,7.32-4.7,11-8.94l3.9-4.89A33.87,33.87,0,0,1,50.6,29.78l-22.49.43,1,2.22a3.52,3.52,0,0,0,2.58.13c2.2-.31,4.4-.66,6.58-1.07q4.11-.7,8.2-1.53a29.15,29.15,0,0,0,5.61-1.4c2.58-1.93,5.18-3.84,7.65-5.9.77-.52.69-.74-.23-.66a33.66,33.66,0,0,0-6,1.77q-5.67,1.95-11.28,4.05a33.82,33.82,0,0,0-5.74,2.45,16.17,16.17,0,0,0-5,1.12L52,27.87,26.07,25.58l-.67.1-1,28.55,12.34-23a29.17,29.17,0,0,0-3.06-5C32.05,23.86,30.53,21.43,29,19L28.9,43.16A7.87,7.87,0,0,1,32.63,40,21.83,21.83,0,0,1,38,37.71l4.85-1.84c4,.22,5.65-.84,5-3.17-.28-2-1.26-3.73-1.5-5.76l-.17-3.34c.09-3.11.07-6.21-.08-9.31a4.2,4.2,0,0,0-2.61,1.15c-2.93,2-5.8,4-8.64,6s-5.68,4.14-8.46,6.3a4.17,4.17,0,0,0-1.91,2.11c-1.27,3.66-2.36,7.3-3.39,11l-.95,3.46c-.32,3.06-.66,6.12-1.05,9.17l2.15,5.57q1.91,5.19,3.56,10.48L29.7,46.67a8.67,8.67,0,0,1-5.49,1.92c-2.41.29-4.83.5-7.26.61l-6.23.74q-7.35-2-6.35,2c.26,2,1.12,3.71,1.31,5.7L5.77,61a90.09,90.09,0,0,0,.05,9.15,4.43,4.43,0,0,0,2.64-1.26q3.1-2.17,6.14-4.49,3.81-2.84,7.55-5.77a38,38,0,0,0,5-4.28c1.37-2.43,2.47-5,3.7-7.54l-1.91,2q4.38-3.51,8.86-6.88L18.11,50.55l23.46-7.22L22.83,47.89,47,43.6,31.73,45.07l20.63-1.42c-1.47.1,4.71-.31,2-.85L31.82,38.27l12.41,4L29.65,33.94l7.68,7.94,3.77-24c.12-.76,0-.89-.61-.35l-1.22,1.66q-1.92,3.08-3.71,6.23c-1.87,3.23-3.72,6.47-5.47,9.76-.52,1-2.09,3.21-1.83,4.53.45,2.27,1,4.53,1.42,6.82q-.13,3.45,4.2,2.79c2.66.83,5.28,1.74,7.88,2.74L36,33.22,33.68,37a42,42,0,0,1-5.62,4.87c-4.27,3.3-8.5,6.6-12.67,10-.81.53-.73.75.23.66a24.87,24.87,0,0,0,4.14-1.13c6-1.93,12-3.93,17.88-6.35L38,45,18.27,51.61,44,44.16,34,46l13-2.29L27,45.61l25.11-.43-19.68-.66,25,2.06L42.25,44.31,63,47.82c-1.39-.24,4.5.69,2.08-.41L44.28,38,55,44,42.63,33l5.53,7.78L43.89,27.2l-.09,11L59.3,20,38.76,35.88c-.63,3.2-1.92,6.2-2.1,9.47q-.1,1.92-.24,3.84c-.13,2.05-.28,4.09-.45,6.14l2.25,5q2,4.76,3.84,9.6l4.3-23.16-7,2.4c-2.69.2-5.35.52-8,1a47.38,47.38,0,0,0-6.12,1.13c-2.84-.46-3.8.39-2.86,2.56a48.35,48.35,0,0,1,1.16,5.07c0,1.94,0,3.88,0,5.83a55.82,55.82,0,0,0,.2,7.54,4.39,4.39,0,0,0,2.57-1.44q4.22-3.42,8.29-7t8.09-7.24a4.42,4.42,0,0,0,1.78-2.34c.86-3.48,1.76-7,2.59-10.44l.75-3.18q.59-3.72,1.24-7.43L48.18,29c-.46-2.38-.85-4.76-1.18-7.16L39.22,44l3.5-2.06a19.46,19.46,0,0,1,6.1-.88c4.66-.21,9.32-.3,14-.55a4.29,4.29,0,0,0-1.66-2.35q-3.76-3.75-7.68-7.34t-7.89-7.12a4.31,4.31,0,0,0-2.47-1.48l-3.54-.3a4.22,4.22,0,0,0,1.58,2.39q3.63,3.82,7.43,7.5T56.23,39A4.26,4.26,0,0,0,58.65,40.57Z"/><path class="cls-2" d="M62.52,46.64l4.2-.14-23-18.8-5.8,26.93a21.06,21.06,0,0,1-2.23,5.1c-1.52,2.81-2.94,5.7-4.26,8.61-1.44,3.21-2.7,6.5-4.24,9.67l.4-.63-.24.32c-.45.58-.45.75.34.61l1.83-.75q3.12-1.59,6.15-3.31c3.14-1.73,6.27-3.49,9.34-5.34.63-.38,3.61-1.77,3.74-2.86L50.88,48.1,45.52,60.58A224.4,224.4,0,0,1,56,39.71c1.37-2.35,2.7-4.74,4-7.16.71-1.43,1.41-2.86,2.09-4.31.93-1.5,1.12-1.94.55-1.33a3.35,3.35,0,0,0,1.16-2.24l-5.86-.58-.55.3-5.07,3.45a8.43,8.43,0,0,0-2.46,2.48c-2.4,2.57-2,1.86-3.46,4.81a9,9,0,0,0-1.58,4.29,6.06,6.06,0,0,1-3,4.95l.59-.22c-3.79,1.32-7.6,2.59-11.38,4L25.89,50a7.56,7.56,0,0,0-1.72,1.62C22,53.9,19.86,56.2,17.61,58.38l22-4.52a56.39,56.39,0,0,1,1.21-23.14,19.34,19.34,0,0,1,2.8-7.13,2.89,2.89,0,0,0,.59-2.24c-5.67-.15-4.13-1-7.21,2.63a18.4,18.4,0,0,0-4.71,8.16l-.52,5.41V38a8.21,8.21,0,0,1,1.32,6.29q.51,3.06-2.91,3.88-3.78,2.63-7.41,5.45a47.51,47.51,0,0,0-5.29,4.3q-1.36,2.6-2.69,5.22c-.54,1.05-1.06,2.11-1.58,3.17-1.61,3.26-2.76,6.73-4.33,10a3.64,3.64,0,0,0,2.56-.55q4.41-1.89,8.75-4t8.62-4.26a3.61,3.61,0,0,0,2.05-1.63L34.62,47.8,29,60.13c4-7.82,7.91-15.39,12.37-22.92,1.79-3,3.43-6.07,5-9.21L31.44,44.1,53,39.19l-24.74-8,.5,27.67.82-2.6-1.94,3.81c-.32.89-.12,1,.58.39l6-4.11a46,46,0,0,0,7.45-7.11,51.23,51.23,0,0,0,3.56-4.22A74.78,74.78,0,0,1,63.69,28c.66-.59.55-.8-.32-.63L39.73,37.41l17.18-6.12L36.38,35.87l16.17-1.25L35.86,33.8a2.45,2.45,0,0,0-2.09.25L27.59,60.11l14.59-21c-.14-.47-.3-.93-.47-1.39a6.42,6.42,0,0,0-2.16-3.22C37,31.21,34.69,27.8,32.37,24.34l-.57,24.2a8.56,8.56,0,0,1,4.06-2.87,35.9,35.9,0,0,1,5.88-2.22l5.31-1.92q6.95.6,5.72-3.33c-.39-2.11-1.23-4.06-1.52-6.22-.53-4.06-.58-8.18-1-12.25a3.43,3.43,0,0,0-2.14,1.39q-2.37,2.29-4.62,4.71c-1.91,2-3.79,4-5.64,6a27.43,27.43,0,0,0-3.65,4.4c-1,2.87-2,5.72-3.11,8.55q-1.46,3.81-2.95,7.61l-1.36,3.34q-.25,4.05-.79,8.08l8-16.34-6.33,6.29.4-.32L24.32,55q-3.67.85-7.4,1.55c-1.85.32-3.67.72-5.48,1.21-2.35-.38-3.24.34-2.67,2.14.31,1.42.93,2.75,1.16,4.21a23.76,23.76,0,0,1-.24,5.06q-.39,3.56-.8,7.09a3.64,3.64,0,0,0,2.56-.55q4.41-1.89,8.75-4t8.62-4.26a3.61,3.61,0,0,0,2.05-1.63,40.1,40.1,0,0,0,1.87-4,10.59,10.59,0,0,1,2.39-3.93q1.62-2.11,3.26-4.21l-.48.46c5-2.28,10-4.6,15-7,.72-.21.73-.45,0-.7L39.35,43.1l5.51,1.78L33,37.7,39.67,43,33.48,32.57l3.06,8.61,2.9-17.84L33.53,39.62l.12.2,0-.66c-.23.78-.43,1.57-.61,2.35-.37,1.55-.77,3.08-1.19,4.61l.09.62c1.44,2.17,2.78,4.41,4,6.72l-.25-.52,1.77,3.76.5-16.28-2.16,4,.27-.37a38.72,38.72,0,0,1-7.51,6q-5.34,3.78-10.42,7.87l21-3.6c2.16-1.92,4.67-3.59,7-5.31L35.78,50.47c8.4-.55,16.71-1,25.11-1.26.74-.07.79-.3.16-.69L50.3,43.45l5.2,2.91-9.17-8.57L52,44.92,63.58,25.36,48.37,42.28l0,.23.13-.69c-1.07,3-2.15,6-3.28,9l-1.1,2.88-1.18,3c0,.75-.06,1.49-.06,2.24,0,1.79-.09,3.58-.25,5.36l7.65-16.53-5.7,6.26.38-.34-3.41,1.65c-2.33.62-4.68,1.19-7,1.72a47.61,47.61,0,0,0-5.28,1.38q-3.51-.39-2.56,2.33c.35,1.49,1,2.87,1.25,4.4a30.79,30.79,0,0,1-.27,5.43c-.28,2.56-.53,5.12-.73,7.68a3.75,3.75,0,0,0,2.57-.76c2.94-1.51,5.83-3.08,8.7-4.71s5.73-3.27,8.54-5a3.8,3.8,0,0,0,2-1.81c1.25-3.59,2.16-7.22,3.1-10.9l.89-3.44q.59-4.49,1.28-9l-1.9-5.41q-1.68-5.07-3.13-10.22L41.68,49.46l3.21-2.09a18.19,18.19,0,0,1,6.16-.86c5.22-.17,10.45,0,15.67,0a5.13,5.13,0,0,0-2-2.43q-4.44-3.85-9-7.55t-9.21-7.31a5,5,0,0,0-2.79-1.51l-3.48-.23a5,5,0,0,0,2,2.46q4.29,3.93,8.72,7.7t8.93,7.45A5,5,0,0,0,62.52,46.64Z"/><path class="cls-2" d="M64,31.14l4.12,0L60.36,18.29l-.84,1.6.27-.38c-3.57,3.15-7.66,5.5-11.56,8.2a104.62,104.62,0,0,0-9.64,6.94A15.24,15.24,0,0,0,36,38.05a113.42,113.42,0,0,0-7.31,13.67c-.91,2-1.78,3.94-2.63,5.93a19.61,19.61,0,0,1-1.58,3.59l.92.76,10.21-9.77-1.6.08a15.37,15.37,0,0,0,3.55.31c1.11-.1,2.15-.25,3.28-.25l.31-.4c5.55-10.73,10.9-21.54,16.34-32.32,2-3.9,3.76-7.93,5.94-11.72l-.47.6.35-.37.48-.6L57.16,6.27A3,3,0,0,0,54.93,7q-3.68,2.23-7.23,4.65c.15-.1-9.29,6-8.62,6.68l5.4,10.56,14.06.5q-9.45-1.58-18.73-3.92a26.88,26.88,0,0,0-4.15-1,8.73,8.73,0,0,0-2.33,1.05c-1.47.78-2.92,1.6-4.33,2.48a35.88,35.88,0,0,0-6.25,4.22c-2.55,2.41-5,4.93-7.52,7.4l11.16-7.95a36.08,36.08,0,0,1,1.84-3.87q2.43-2.78,4.88-5.52a12.41,12.41,0,0,0,3.42-5.13Q37.89,14.15,39.2,11l-.31.62c1.55-2.39,3-5.09,5-7.12l.32-.7-5.65-.37a3.31,3.31,0,0,0-2.1,1.38Q33.15,8.09,30,11.49c.15-.16-8.19,8.51-7.39,9l6.64,4.37L27.35,23q2.53,3.93,5.11,7.82L46,28.94a167.51,167.51,0,0,1-20.53-1,1.6,1.6,0,0,0-1.48.66c-1,.88-2,1.8-2.89,2.76-2,2-4.2,3.9-5.63,6.31-1.57,2.62-3.13,5.24-4.64,7.89a26.47,26.47,0,0,0-3,6.42c-.66,2.56-1.16,5.23-2,7.72L14.34,51l1.15-1.58L6.7,55.93c14.11-7.12,8.08-5.06,14.55-5.37l-.53,0a7.13,7.13,0,0,1,2.39.28,2.88,2.88,0,0,1,2,1.09l.41-.34q4.73-10.69,10.11-21c1.14-2.13,2.2-4.3,3.19-6.49,1.94-3.68,4.14-7.22,6-10.92,1.28-2.5,2.47-5,3.75-7.55a12.79,12.79,0,0,1,1.7-3L26.84,11.33a73.11,73.11,0,0,1,17.24,3.92L33.74,12l14.48,8.2L37.51,10.83a8.44,8.44,0,0,0-.53,2q-.31,10.52-.87,21L40.28,25Q38.09,28.06,36,31.24a31.53,31.53,0,0,1-5.09,6.88Q29.58,40,28.43,42c-.64,1-1.24,2.1-1.78,3.19-.08.17-1.3,2.91-.08,2.12A27,27,0,0,0,33.77,42a20.86,20.86,0,0,0,2.47-2.32q3.78-4.32,7.87-8.36a104.91,104.91,0,0,1,7.83-7.67c3-2.8,6-5.6,8.79-8.56,1.39-1.46,2.75-2.94,4.28-4.26a3,3,0,0,0-2.35-.24q-4.29.47-8.55,1.15t-8.5,1.46a3,3,0,0,0-2.17.93A64.49,64.49,0,0,1,37,22.81c-.68.81-1.39,1.6-2.11,2.37-1.65,1.1-1.71,2.58-.16,4.43l-1.3,5.56a10.22,10.22,0,0,1-2.49,2.95L26.57,47.3a15.72,15.72,0,0,0,2.6-2.62q1.68-2.46,3.39-4.9c1.1-1.61,2.28-3.17,3.51-4.67a34.09,34.09,0,0,0,4-6.74c.48-.94.9-1.91,1.29-2.89a4.16,4.16,0,0,0-.85-4l.33,2.7a25.06,25.06,0,0,1,6.49-2.63c2.14.25,3-.44,2.54-2.05l-1.71-6.93a70.26,70.26,0,0,1,2.15-10A4,4,0,0,0,47.56,3Q42.72,4.47,37.94,6.2T28.42,9.76a4,4,0,0,0-2.33,1.46c-.36,1-.68,2-1,3a85,85,0,0,0-2.12,9L22.1,27.1c-.23,3.42-.5,6.84-.83,10.26l1.8,5.71q1.5,5,2.62,10.07l6.49-18.62A20.92,20.92,0,0,1,25,37.47a52.81,52.81,0,0,1-8.08,1.73L10.5,40.3q-7.75-2.14-6.73,2.24c.25,2.2.79,4.34,1,6.55.37,3.71.53,7.43,1,11.14a1.54,1.54,0,0,0,1.4-.74C8.08,58.56,9,57.6,9.8,56.6q1.62-1.83,3.15-3.74A10.36,10.36,0,0,0,14.87,50c.65-3.06.88-6.3,1.32-9.39l-1.61,2.83q5-7.11,10.22-14l-8.87,8.73,17.94-6.24L28.55,33.4l17.53-3.27c-.4.07,2.69-.71,1.1-1.06l-19-6.92,2.52,2.22-1.84-7.78-1.35,4.68,5.12-10.86-6.1,8.15L37.3,5.66l-14,14.66.89-.39,1.05-2c-1.64,1.57-3.22,3.2-4.8,4.81l-.31.62,2.35.05-.6-.06,2.17.31-.5-.14.26,8.27L25,30.15,19.57,36l3.12-2.86L17.13,38l8.46-5.26.41-.45-4.64,4L35.08,26l-12,6.89L44.35,30l-6.09.41,20.19.25c-.45,0,2.86-.21,1.3-.84L43.34,20.84l2.24,2.48-.94-7.57L42.75,20.5,49.18,12l-7.87,6.57L55.59,8,39.75,18.34l1-.17-.77,0a50.43,50.43,0,0,0-1.71,10.45c0,1.43,0,2.86-.07,4.29,0,2.27-.11,4.55-.21,6.82l1.82,5q1.53,4.4,2.73,8.9L48.77,34.5a20.68,20.68,0,0,1-6.86,3.24,44.93,44.93,0,0,1-7.74,2L28,41.06q-7.59-1.76-6.47,2.6c.32,2.39.93,4.73,1.21,7.13.47,4,.74,8,1.33,11.94A1.5,1.5,0,0,0,25.43,62c.88-.91,1.73-1.86,2.54-2.85q1.55-1.8,3-3.68a9.57,9.57,0,0,0,1.82-2.77c2.12-5.55,4-11.2,6.09-16.76l-5.63,8.62A55.89,55.89,0,0,1,42.53,37a51.51,51.51,0,0,1,6.23-3.83l8.36-2c3.65-.17,7.31-.18,11,0a1.67,1.67,0,0,0-.3-1.65c-.91-1.76-1.88-3.47-2.92-5.15s-2.06-3.36-3.18-5a1.73,1.73,0,0,0-1.32-1L56.6,17.5a1.78,1.78,0,0,0,.25,1.71c.86,1.85,1.78,3.68,2.77,5.46s2,3.58,3,5.32A1.79,1.79,0,0,0,64,31.14Z"/><path class="cls-1" d="M43.65,25.12h4.46L41.62,60.55H37.85L43.44,31h-.11L33.5,48.81,31.22,31h-.11l-7,29.53H20.43L29,25.12h4.41l1.91,15Z"/><path class="cls-1" d="M101.78,24.67c10,0,7,13.46,5.93,18.16C106.78,47.3,104,61,94,61s-6.91-13.64-5.94-18.2C89.29,37,92.34,24.67,101.78,24.67Z"/><path class="cls-3" d="M107.71,42.83C106.78,47.3,104,61,94,61s-6.91-13.64-5.94-18.2c1.2-5.85,4.25-18.16,13.69-18.16C111.79,24.67,108.73,38.13,107.71,42.83Z"/><path class="cls-4" d="M163.75,24.67c10,0,6.95,13.46,5.93,18.16C168.75,47.3,166,61,156,61s-6.91-13.64-6-18.2C151.26,37,154.27,24.67,163.75,24.67Z"/><path class="cls-5" d="M225.76,24.67c10,0,7,13.46,5.94,18.16C230.77,47.3,228,61,218,61s-6.91-13.64-6-18.2C213.27,37,216.28,24.67,225.76,24.67Z"/><path class="cls-6" d="M345.36,24.67c10,0,7,13.46,5.94,18.16-.93,4.47-3.72,18.2-13.69,18.2s-6.91-13.64-6-18.2C332.87,37,335.88,24.67,345.36,24.67Z"/><path class="cls-7" d="M287.69,24.67c10,0,6.95,13.46,5.93,18.16C292.69,47.3,289.9,61,279.94,61s-6.91-13.64-6-18.2C275.2,37,278.21,24.67,287.69,24.67Z"/></g></g></svg>